<?xml version="1.0" standalone="no"?>
<!DOCTYPE svg PUBLIC "-//W3C//DTD SVG 20010904//EN"
 "http://www.w3.org/TR/2001/REC-SVG-20010904/DTD/svg10.dtd">
<svg version="1.0" xmlns="http://www.w3.org/2000/svg"
 width="554.000000pt" height="420.000000pt" viewBox="0 0 554.000000 420.000000"
 preserveAspectRatio="xMidYMid meet">

<g transform="translate(0.000000,420.000000) scale(0.100000,-0.100000)"
fill="#000000" stroke="none">
<path d="M3385 3499 c-213 -31 -421 -130 -586 -281 -48 -44 -144 -159 -164
-198 l-16 -31 -38 48 c-49 62 -174 181 -234 221 -113 79 -296 153 -447 183
-84 17 -346 17 -430 0 -401 -79 -720 -345 -834 -695 -38 -117 -52 -256 -38
-374 10 -83 59 -271 80 -309 68 -119 246 -316 348 -384 40 -27 1032 -1039
1442 -1473 75 -79 101 -90 112 -49 3 12 307 316 676 675 798 777 780 760 880
823 101 64 214 177 290 289 73 110 67 99 94 176 52 151 63 209 64 360 1 203
-31 330 -128 504 -203 363 -646 576 -1071 515z"/>
</g>
</svg>
